<mxfile host="app.diagrams.net" agent="Mozilla/5.0 (X11; Linux x86_64; rv:122.0) Gecko/20100101 Firefox/122.0" version="24.7.7">
  <diagram name="Page-1" id="CDgigeLk-bUDsQpGntLy">
    <mxGraphModel dx="1047" dy="1111" grid="1" gridSize="10" guides="1" tooltips="1" connect="1" arrows="1" fold="1" page="1" pageScale="1" pageWidth="850" pageHeight="1100" math="0" shadow="0">
      <root>
        <mxCell id="0" />
        <mxCell id="1" parent="0" />
        <mxCell id="8aqaGeK2fXo3s5Go30Ze-1" value="1" style="whiteSpace=wrap;html=1;aspect=fixed;" vertex="1" parent="1">
          <mxGeometry x="40" y="130" width="120" height="120" as="geometry" />
        </mxCell>
        <mxCell id="8aqaGeK2fXo3s5Go30Ze-2" value="Caso de teste" style="text;html=1;align=center;verticalAlign=middle;resizable=0;points=[];autosize=1;strokeColor=none;fillColor=none;" vertex="1" parent="1">
          <mxGeometry x="50" y="90" width="100" height="30" as="geometry" />
        </mxCell>
        <mxCell id="8aqaGeK2fXo3s5Go30Ze-3" value="Registrar Rifa" style="whiteSpace=wrap;html=1;aspect=fixed;" vertex="1" parent="1">
          <mxGeometry x="190" y="130" width="120" height="120" as="geometry" />
        </mxCell>
        <mxCell id="8aqaGeK2fXo3s5Go30Ze-4" value="Funcionalidade" style="text;html=1;align=center;verticalAlign=middle;resizable=0;points=[];autosize=1;strokeColor=none;fillColor=none;" vertex="1" parent="1">
          <mxGeometry x="200" y="90" width="100" height="30" as="geometry" />
        </mxCell>
        <mxCell id="8aqaGeK2fXo3s5Go30Ze-5" value="Registrar a rifa de acordo com os dados enviados" style="whiteSpace=wrap;html=1;aspect=fixed;" vertex="1" parent="1">
          <mxGeometry x="350" y="130" width="120" height="120" as="geometry" />
        </mxCell>
        <mxCell id="8aqaGeK2fXo3s5Go30Ze-6" value="Cenário" style="text;html=1;align=center;verticalAlign=middle;resizable=0;points=[];autosize=1;strokeColor=none;fillColor=none;" vertex="1" parent="1">
          <mxGeometry x="375" y="90" width="70" height="30" as="geometry" />
        </mxCell>
        <mxCell id="8aqaGeK2fXo3s5Go30Ze-7" value="Usuário deve estar logado" style="whiteSpace=wrap;html=1;aspect=fixed;" vertex="1" parent="1">
          <mxGeometry x="515" y="130" width="120" height="120" as="geometry" />
        </mxCell>
        <mxCell id="8aqaGeK2fXo3s5Go30Ze-8" value="Pré condição" style="text;html=1;align=center;verticalAlign=middle;resizable=0;points=[];autosize=1;strokeColor=none;fillColor=none;" vertex="1" parent="1">
          <mxGeometry x="530" y="90" width="90" height="30" as="geometry" />
        </mxCell>
        <mxCell id="8aqaGeK2fXo3s5Go30Ze-9" value="&lt;div&gt;1. Usuário acessa o formulário de cadastro da rifa&lt;/div&gt;&lt;div&gt;2. Preenche os campos necessários&lt;/div&gt;&lt;div&gt;3. Clica no botão de criar a rifa&lt;br&gt;&lt;/div&gt;" style="whiteSpace=wrap;html=1;aspect=fixed;" vertex="1" parent="1">
          <mxGeometry x="680" y="130" width="120" height="120" as="geometry" />
        </mxCell>
        <mxCell id="8aqaGeK2fXo3s5Go30Ze-10" value="Caso de teste" style="text;html=1;align=center;verticalAlign=middle;resizable=0;points=[];autosize=1;strokeColor=none;fillColor=none;" vertex="1" parent="1">
          <mxGeometry x="690" y="90" width="100" height="30" as="geometry" />
        </mxCell>
        <mxCell id="8aqaGeK2fXo3s5Go30Ze-14" value="O sistema deve redirecionar para a página de criação" style="whiteSpace=wrap;html=1;aspect=fixed;" vertex="1" parent="1">
          <mxGeometry x="840" y="130" width="120" height="120" as="geometry" />
        </mxCell>
        <mxCell id="8aqaGeK2fXo3s5Go30Ze-15" value="Resultado Esperado" style="text;html=1;align=center;verticalAlign=middle;resizable=0;points=[];autosize=1;strokeColor=none;fillColor=none;" vertex="1" parent="1">
          <mxGeometry x="835" y="90" width="130" height="30" as="geometry" />
        </mxCell>
        <mxCell id="8aqaGeK2fXo3s5Go30Ze-16" value="2" style="whiteSpace=wrap;html=1;aspect=fixed;" vertex="1" parent="1">
          <mxGeometry x="40" y="290" width="120" height="120" as="geometry" />
        </mxCell>
        <mxCell id="8aqaGeK2fXo3s5Go30Ze-17" value="Registrar Rifa" style="whiteSpace=wrap;html=1;aspect=fixed;" vertex="1" parent="1">
          <mxGeometry x="190" y="290" width="120" height="120" as="geometry" />
        </mxCell>
        <mxCell id="8aqaGeK2fXo3s5Go30Ze-18" value="Registrar a rifa com dados faltantes" style="whiteSpace=wrap;html=1;aspect=fixed;" vertex="1" parent="1">
          <mxGeometry x="350" y="290" width="120" height="120" as="geometry" />
        </mxCell>
        <mxCell id="8aqaGeK2fXo3s5Go30Ze-19" value="Usuário deve estar logado" style="whiteSpace=wrap;html=1;aspect=fixed;" vertex="1" parent="1">
          <mxGeometry x="515" y="290" width="120" height="120" as="geometry" />
        </mxCell>
        <mxCell id="8aqaGeK2fXo3s5Go30Ze-20" value="&lt;div&gt;1. Usuário acessa o formulário de cadastro da rifa&lt;/div&gt;&lt;div&gt;2. Não preenche os campos necessários &lt;br&gt;&lt;/div&gt;&lt;div&gt;3. Clica no botão de criar a rifa&lt;br&gt;&lt;/div&gt;" style="whiteSpace=wrap;html=1;aspect=fixed;" vertex="1" parent="1">
          <mxGeometry x="680" y="290" width="120" height="120" as="geometry" />
        </mxCell>
        <mxCell id="8aqaGeK2fXo3s5Go30Ze-21" value="O sistema deve retornar uma mensagem indicando a falta de informação" style="whiteSpace=wrap;html=1;aspect=fixed;" vertex="1" parent="1">
          <mxGeometry x="840" y="290" width="120" height="120" as="geometry" />
        </mxCell>
        <mxCell id="8aqaGeK2fXo3s5Go30Ze-23" value="3" style="whiteSpace=wrap;html=1;aspect=fixed;" vertex="1" parent="1">
          <mxGeometry x="40" y="450" width="120" height="120" as="geometry" />
        </mxCell>
        <mxCell id="8aqaGeK2fXo3s5Go30Ze-24" value="Registrar Rifa" style="whiteSpace=wrap;html=1;aspect=fixed;" vertex="1" parent="1">
          <mxGeometry x="190" y="450" width="120" height="120" as="geometry" />
        </mxCell>
        <mxCell id="8aqaGeK2fXo3s5Go30Ze-25" value="Registrar a rifa com imagem da rifa faltando" style="whiteSpace=wrap;html=1;aspect=fixed;" vertex="1" parent="1">
          <mxGeometry x="350" y="450" width="120" height="120" as="geometry" />
        </mxCell>
        <mxCell id="8aqaGeK2fXo3s5Go30Ze-26" value="Usuário deve estar logado" style="whiteSpace=wrap;html=1;aspect=fixed;" vertex="1" parent="1">
          <mxGeometry x="515" y="450" width="120" height="120" as="geometry" />
        </mxCell>
        <mxCell id="8aqaGeK2fXo3s5Go30Ze-27" value="&lt;div&gt;1. Usuário acessa o formulário de cadastro da rifa&lt;/div&gt;&lt;div&gt;2. Preenche os campos necessários, mas não envia a imagem da rifa&lt;br&gt;&lt;/div&gt;&lt;div&gt;3. Clica no botão de criar a rifa&lt;br&gt;&lt;/div&gt;" style="whiteSpace=wrap;html=1;aspect=fixed;" vertex="1" parent="1">
          <mxGeometry x="680" y="440" width="130" height="130" as="geometry" />
        </mxCell>
        <mxCell id="8aqaGeK2fXo3s5Go30Ze-29" value="4" style="whiteSpace=wrap;html=1;aspect=fixed;" vertex="1" parent="1">
          <mxGeometry x="40" y="610" width="120" height="120" as="geometry" />
        </mxCell>
        <mxCell id="8aqaGeK2fXo3s5Go30Ze-30" value="Atualizar Rifa" style="whiteSpace=wrap;html=1;aspect=fixed;" vertex="1" parent="1">
          <mxGeometry x="190" y="610" width="120" height="120" as="geometry" />
        </mxCell>
        <mxCell id="8aqaGeK2fXo3s5Go30Ze-31" value="Atualizar&amp;nbsp; rifa de acordo com os dados faltantes" style="whiteSpace=wrap;html=1;aspect=fixed;" vertex="1" parent="1">
          <mxGeometry x="350" y="610" width="120" height="120" as="geometry" />
        </mxCell>
        <mxCell id="8aqaGeK2fXo3s5Go30Ze-32" value="Usuário deve estar logado" style="whiteSpace=wrap;html=1;aspect=fixed;" vertex="1" parent="1">
          <mxGeometry x="515" y="610" width="120" height="120" as="geometry" />
        </mxCell>
        <mxCell id="8aqaGeK2fXo3s5Go30Ze-33" value="&lt;div&gt;1. Usuário acessa uma rifa específica&lt;br&gt;&lt;/div&gt;&lt;div&gt;2. Preenche os campos necessários&lt;/div&gt;&amp;nbsp;para atualização da rifa com algum dado faltando&lt;br&gt;&lt;div&gt;3. Clica no botão de atualização&lt;br&gt;&lt;/div&gt;" style="whiteSpace=wrap;html=1;aspect=fixed;" vertex="1" parent="1">
          <mxGeometry x="680" y="610" width="130" height="130" as="geometry" />
        </mxCell>
        <mxCell id="8aqaGeK2fXo3s5Go30Ze-35" value="5" style="whiteSpace=wrap;html=1;aspect=fixed;" vertex="1" parent="1">
          <mxGeometry x="40" y="780" width="120" height="120" as="geometry" />
        </mxCell>
        <mxCell id="8aqaGeK2fXo3s5Go30Ze-36" value="Atualizar Rifa" style="whiteSpace=wrap;html=1;aspect=fixed;" vertex="1" parent="1">
          <mxGeometry x="190" y="780" width="120" height="120" as="geometry" />
        </mxCell>
        <mxCell id="8aqaGeK2fXo3s5Go30Ze-37" value="ATualizar uma rifa que não existe" style="whiteSpace=wrap;html=1;aspect=fixed;" vertex="1" parent="1">
          <mxGeometry x="350" y="780" width="120" height="120" as="geometry" />
        </mxCell>
        <mxCell id="8aqaGeK2fXo3s5Go30Ze-38" value="Usuário deve estar logado" style="whiteSpace=wrap;html=1;aspect=fixed;" vertex="1" parent="1">
          <mxGeometry x="515" y="780" width="120" height="120" as="geometry" />
        </mxCell>
        <mxCell id="8aqaGeK2fXo3s5Go30Ze-39" value="&lt;div&gt;1. Usuário acessa uma rifa específica&lt;br&gt;&lt;/div&gt;&lt;div&gt;2. Preenche os campos necessários&lt;/div&gt;&lt;div&gt;3. Clica no botão de atualização&lt;br&gt;&lt;/div&gt;" style="whiteSpace=wrap;html=1;aspect=fixed;" vertex="1" parent="1">
          <mxGeometry x="680" y="780" width="120" height="120" as="geometry" />
        </mxCell>
        <mxCell id="8aqaGeK2fXo3s5Go30Ze-40" value="O sistema retorna um erro de not found indicando a não existência da rifa" style="whiteSpace=wrap;html=1;aspect=fixed;" vertex="1" parent="1">
          <mxGeometry x="840" y="780" width="120" height="120" as="geometry" />
        </mxCell>
        <mxCell id="8aqaGeK2fXo3s5Go30Ze-41" value="6" style="whiteSpace=wrap;html=1;aspect=fixed;" vertex="1" parent="1">
          <mxGeometry x="40" y="950" width="120" height="120" as="geometry" />
        </mxCell>
        <mxCell id="8aqaGeK2fXo3s5Go30Ze-42" value="Atualizar Rifa" style="whiteSpace=wrap;html=1;aspect=fixed;" vertex="1" parent="1">
          <mxGeometry x="190" y="950" width="120" height="120" as="geometry" />
        </mxCell>
        <mxCell id="8aqaGeK2fXo3s5Go30Ze-43" value="Atualizar a rifa de acordo com os dados enviados" style="whiteSpace=wrap;html=1;aspect=fixed;" vertex="1" parent="1">
          <mxGeometry x="350" y="950" width="120" height="120" as="geometry" />
        </mxCell>
        <mxCell id="8aqaGeK2fXo3s5Go30Ze-44" value="Usuário deve estar logado" style="whiteSpace=wrap;html=1;aspect=fixed;" vertex="1" parent="1">
          <mxGeometry x="515" y="950" width="120" height="120" as="geometry" />
        </mxCell>
        <mxCell id="8aqaGeK2fXo3s5Go30Ze-45" value="&lt;div&gt;1. Usuário acessa uma rifa específica&lt;br&gt;&lt;/div&gt;&lt;div&gt;2. Preenche os campos necessários&lt;/div&gt;&lt;div&gt;3. Clica no botão de atualização da rifa&lt;br&gt;&lt;/div&gt;" style="whiteSpace=wrap;html=1;aspect=fixed;" vertex="1" parent="1">
          <mxGeometry x="680" y="950" width="120" height="120" as="geometry" />
        </mxCell>
        <mxCell id="8aqaGeK2fXo3s5Go30Ze-46" value="O sistema deve redirecionar para a página de atualização" style="whiteSpace=wrap;html=1;aspect=fixed;" vertex="1" parent="1">
          <mxGeometry x="840" y="950" width="120" height="120" as="geometry" />
        </mxCell>
        <mxCell id="8aqaGeK2fXo3s5Go30Ze-47" value="7" style="whiteSpace=wrap;html=1;aspect=fixed;" vertex="1" parent="1">
          <mxGeometry x="40" y="1120" width="120" height="120" as="geometry" />
        </mxCell>
        <mxCell id="8aqaGeK2fXo3s5Go30Ze-48" value="Atualizar Rifa" style="whiteSpace=wrap;html=1;aspect=fixed;" vertex="1" parent="1">
          <mxGeometry x="190" y="1120" width="120" height="120" as="geometry" />
        </mxCell>
        <mxCell id="8aqaGeK2fXo3s5Go30Ze-49" value="Atualizar Rifa, com erro de conexão com o banco de dados" style="whiteSpace=wrap;html=1;aspect=fixed;" vertex="1" parent="1">
          <mxGeometry x="350" y="1120" width="120" height="120" as="geometry" />
        </mxCell>
        <mxCell id="8aqaGeK2fXo3s5Go30Ze-50" value="Usuário deve estar logado" style="whiteSpace=wrap;html=1;aspect=fixed;" vertex="1" parent="1">
          <mxGeometry x="515" y="1120" width="120" height="120" as="geometry" />
        </mxCell>
        <mxCell id="8aqaGeK2fXo3s5Go30Ze-52" value="O sistema deve retornar um erro 500 indicando erro com o banco de dados" style="whiteSpace=wrap;html=1;aspect=fixed;" vertex="1" parent="1">
          <mxGeometry x="840" y="1120" width="120" height="120" as="geometry" />
        </mxCell>
        <mxCell id="8aqaGeK2fXo3s5Go30Ze-53" value="8" style="whiteSpace=wrap;html=1;aspect=fixed;" vertex="1" parent="1">
          <mxGeometry x="40" y="1280" width="120" height="120" as="geometry" />
        </mxCell>
        <mxCell id="8aqaGeK2fXo3s5Go30Ze-54" value="Deletar Rifa" style="whiteSpace=wrap;html=1;aspect=fixed;" vertex="1" parent="1">
          <mxGeometry x="190" y="1280" width="120" height="120" as="geometry" />
        </mxCell>
        <mxCell id="8aqaGeK2fXo3s5Go30Ze-55" value="Deletar uma rifa" style="whiteSpace=wrap;html=1;aspect=fixed;" vertex="1" parent="1">
          <mxGeometry x="350" y="1280" width="120" height="120" as="geometry" />
        </mxCell>
        <mxCell id="8aqaGeK2fXo3s5Go30Ze-56" value="Usuário deve estar logado " style="whiteSpace=wrap;html=1;aspect=fixed;" vertex="1" parent="1">
          <mxGeometry x="515" y="1280" width="120" height="120" as="geometry" />
        </mxCell>
        <mxCell id="8aqaGeK2fXo3s5Go30Ze-58" value="O sistema redireciona para a página de deleção com sucesso" style="whiteSpace=wrap;html=1;aspect=fixed;" vertex="1" parent="1">
          <mxGeometry x="840" y="1280" width="120" height="120" as="geometry" />
        </mxCell>
        <mxCell id="8aqaGeK2fXo3s5Go30Ze-59" value="9" style="whiteSpace=wrap;html=1;aspect=fixed;" vertex="1" parent="1">
          <mxGeometry x="40" y="1460" width="120" height="120" as="geometry" />
        </mxCell>
        <mxCell id="8aqaGeK2fXo3s5Go30Ze-60" value="Deletar Rifa" style="whiteSpace=wrap;html=1;aspect=fixed;" vertex="1" parent="1">
          <mxGeometry x="190" y="1460" width="120" height="120" as="geometry" />
        </mxCell>
        <mxCell id="8aqaGeK2fXo3s5Go30Ze-61" value="Tentativa de deleção com erro de conexão com o banco de dados" style="whiteSpace=wrap;html=1;aspect=fixed;" vertex="1" parent="1">
          <mxGeometry x="350" y="1460" width="120" height="120" as="geometry" />
        </mxCell>
        <mxCell id="8aqaGeK2fXo3s5Go30Ze-62" value="Usuário deve estar logado" style="whiteSpace=wrap;html=1;aspect=fixed;" vertex="1" parent="1">
          <mxGeometry x="515" y="1460" width="120" height="120" as="geometry" />
        </mxCell>
        <mxCell id="8aqaGeK2fXo3s5Go30Ze-64" value="O sistema&amp;nbsp; retorna um erro com status 500" style="whiteSpace=wrap;html=1;aspect=fixed;" vertex="1" parent="1">
          <mxGeometry x="840" y="1460" width="120" height="120" as="geometry" />
        </mxCell>
        <mxCell id="8aqaGeK2fXo3s5Go30Ze-65" value="10" style="whiteSpace=wrap;html=1;aspect=fixed;" vertex="1" parent="1">
          <mxGeometry x="40" y="1630" width="120" height="120" as="geometry" />
        </mxCell>
        <mxCell id="8aqaGeK2fXo3s5Go30Ze-66" value="Consultar Rifa" style="whiteSpace=wrap;html=1;aspect=fixed;" vertex="1" parent="1">
          <mxGeometry x="190" y="1630" width="120" height="120" as="geometry" />
        </mxCell>
        <mxCell id="8aqaGeK2fXo3s5Go30Ze-67" value="Consultar rifas para usuário admin" style="whiteSpace=wrap;html=1;aspect=fixed;" vertex="1" parent="1">
          <mxGeometry x="350" y="1630" width="120" height="120" as="geometry" />
        </mxCell>
        <mxCell id="8aqaGeK2fXo3s5Go30Ze-68" value="Usuário deve estar logado" style="whiteSpace=wrap;html=1;aspect=fixed;" vertex="1" parent="1">
          <mxGeometry x="515" y="1630" width="120" height="120" as="geometry" />
        </mxCell>
        <mxCell id="8aqaGeK2fXo3s5Go30Ze-69" value="&lt;div&gt;1. Usuário clica na página em que as rifas são retornadas &lt;br&gt;&lt;/div&gt;" style="whiteSpace=wrap;html=1;aspect=fixed;" vertex="1" parent="1">
          <mxGeometry x="680" y="1630" width="120" height="120" as="geometry" />
        </mxCell>
        <mxCell id="8aqaGeK2fXo3s5Go30Ze-70" value="O sistema retorna as rifas cadastradas" style="whiteSpace=wrap;html=1;aspect=fixed;" vertex="1" parent="1">
          <mxGeometry x="840" y="1630" width="120" height="120" as="geometry" />
        </mxCell>
        <mxCell id="8aqaGeK2fXo3s5Go30Ze-71" value="&lt;font style=&quot;font-size: 26px;&quot;&gt;&lt;b&gt;Rifas&lt;/b&gt;&lt;/font&gt;" style="text;html=1;align=center;verticalAlign=middle;resizable=0;points=[];autosize=1;strokeColor=none;fillColor=none;" vertex="1" parent="1">
          <mxGeometry x="375" y="13" width="90" height="40" as="geometry" />
        </mxCell>
        <mxCell id="8aqaGeK2fXo3s5Go30Ze-73" value="O sistema deve retornar uma mensagem indicando a falta de informação" style="whiteSpace=wrap;html=1;aspect=fixed;" vertex="1" parent="1">
          <mxGeometry x="840" y="450" width="120" height="120" as="geometry" />
        </mxCell>
        <mxCell id="8aqaGeK2fXo3s5Go30Ze-74" value="O sistema deve retornar uma mensagem indicando a falta de informação" style="whiteSpace=wrap;html=1;aspect=fixed;" vertex="1" parent="1">
          <mxGeometry x="840" y="610" width="120" height="120" as="geometry" />
        </mxCell>
        <mxCell id="8aqaGeK2fXo3s5Go30Ze-75" value="&lt;div&gt;1. Usuário acessa uma rifa específica&lt;br&gt;&lt;/div&gt;&lt;div&gt;2. Preenche os campos necessários&lt;/div&gt;&lt;div&gt;3. Clica no botão de atualização da rifa&lt;br&gt;&lt;/div&gt;" style="whiteSpace=wrap;html=1;aspect=fixed;" vertex="1" parent="1">
          <mxGeometry x="680" y="1120" width="120" height="120" as="geometry" />
        </mxCell>
        <mxCell id="8aqaGeK2fXo3s5Go30Ze-76" value="&lt;div&gt;1. Usuário acessa uma rifa específica&lt;br&gt;&lt;/div&gt;&lt;div&gt;.2. Clica no botão de deletar uma rifa&lt;br&gt;&lt;/div&gt;" style="whiteSpace=wrap;html=1;aspect=fixed;" vertex="1" parent="1">
          <mxGeometry x="680" y="1280" width="120" height="120" as="geometry" />
        </mxCell>
        <mxCell id="8aqaGeK2fXo3s5Go30Ze-78" value="&lt;div&gt;1. Usuário acessa uma rifa específica&lt;br&gt;&lt;/div&gt;&lt;div&gt;.2. Clica no botão de deletar uma rifa&lt;br&gt;&lt;/div&gt;" style="whiteSpace=wrap;html=1;aspect=fixed;" vertex="1" parent="1">
          <mxGeometry x="680" y="1460" width="120" height="120" as="geometry" />
        </mxCell>
        <mxCell id="8aqaGeK2fXo3s5Go30Ze-79" value="11" style="whiteSpace=wrap;html=1;aspect=fixed;" vertex="1" parent="1">
          <mxGeometry x="40" y="1800" width="120" height="120" as="geometry" />
        </mxCell>
        <mxCell id="8aqaGeK2fXo3s5Go30Ze-80" value="Consultar Rifa" style="whiteSpace=wrap;html=1;aspect=fixed;" vertex="1" parent="1">
          <mxGeometry x="190" y="1800" width="120" height="120" as="geometry" />
        </mxCell>
        <mxCell id="8aqaGeK2fXo3s5Go30Ze-81" value="Consultar rifas para cliente" style="whiteSpace=wrap;html=1;aspect=fixed;" vertex="1" parent="1">
          <mxGeometry x="350" y="1800" width="120" height="120" as="geometry" />
        </mxCell>
        <mxCell id="8aqaGeK2fXo3s5Go30Ze-82" value="Usuário deve estar logado" style="whiteSpace=wrap;html=1;aspect=fixed;" vertex="1" parent="1">
          <mxGeometry x="515" y="1800" width="120" height="120" as="geometry" />
        </mxCell>
        <mxCell id="8aqaGeK2fXo3s5Go30Ze-85" value="12" style="whiteSpace=wrap;html=1;aspect=fixed;" vertex="1" parent="1">
          <mxGeometry x="40" y="1970" width="120" height="120" as="geometry" />
        </mxCell>
        <mxCell id="8aqaGeK2fXo3s5Go30Ze-86" value="Consultar Rifa" style="whiteSpace=wrap;html=1;aspect=fixed;" vertex="1" parent="1">
          <mxGeometry x="190" y="1970" width="120" height="120" as="geometry" />
        </mxCell>
        <mxCell id="8aqaGeK2fXo3s5Go30Ze-87" value="Consultar rifas com erro de conexão com o banco de dados" style="whiteSpace=wrap;html=1;aspect=fixed;" vertex="1" parent="1">
          <mxGeometry x="350" y="1970" width="120" height="120" as="geometry" />
        </mxCell>
        <mxCell id="8aqaGeK2fXo3s5Go30Ze-88" value="Usuário deve estar logado" style="whiteSpace=wrap;html=1;aspect=fixed;" vertex="1" parent="1">
          <mxGeometry x="515" y="1970" width="120" height="120" as="geometry" />
        </mxCell>
        <mxCell id="8aqaGeK2fXo3s5Go30Ze-91" value="&lt;div&gt;1. Usuário clica na página em que as rifas são retornadas &lt;br&gt;&lt;/div&gt;" style="whiteSpace=wrap;html=1;aspect=fixed;" vertex="1" parent="1">
          <mxGeometry x="680" y="1800" width="120" height="120" as="geometry" />
        </mxCell>
        <mxCell id="8aqaGeK2fXo3s5Go30Ze-92" value="O sistema retorna as rifas cadastradas do usuário" style="whiteSpace=wrap;html=1;aspect=fixed;" vertex="1" parent="1">
          <mxGeometry x="845" y="1800" width="120" height="120" as="geometry" />
        </mxCell>
        <mxCell id="8aqaGeK2fXo3s5Go30Ze-93" value="&lt;div&gt;1. Usuário clica na página em que as rifas são retornadas &lt;br&gt;&lt;/div&gt;" style="whiteSpace=wrap;html=1;aspect=fixed;" vertex="1" parent="1">
          <mxGeometry x="685" y="1970" width="120" height="120" as="geometry" />
        </mxCell>
        <mxCell id="8aqaGeK2fXo3s5Go30Ze-94" value="O sistema deve retornar um erro 500 indicando erro com o banco de dados" style="whiteSpace=wrap;html=1;aspect=fixed;" vertex="1" parent="1">
          <mxGeometry x="860" y="1970" width="120" height="120" as="geometry" />
        </mxCell>
        <mxCell id="8aqaGeK2fXo3s5Go30Ze-95" value="1" style="whiteSpace=wrap;html=1;aspect=fixed;" vertex="1" parent="1">
          <mxGeometry x="1400" y="117" width="120" height="120" as="geometry" />
        </mxCell>
        <mxCell id="8aqaGeK2fXo3s5Go30Ze-96" value="Caso de teste" style="text;html=1;align=center;verticalAlign=middle;resizable=0;points=[];autosize=1;strokeColor=none;fillColor=none;" vertex="1" parent="1">
          <mxGeometry x="1410" y="77" width="100" height="30" as="geometry" />
        </mxCell>
        <mxCell id="8aqaGeK2fXo3s5Go30Ze-97" value="Registrar Compra" style="whiteSpace=wrap;html=1;aspect=fixed;" vertex="1" parent="1">
          <mxGeometry x="1550" y="117" width="120" height="120" as="geometry" />
        </mxCell>
        <mxCell id="8aqaGeK2fXo3s5Go30Ze-98" value="Funcionalidade" style="text;html=1;align=center;verticalAlign=middle;resizable=0;points=[];autosize=1;strokeColor=none;fillColor=none;" vertex="1" parent="1">
          <mxGeometry x="1560" y="77" width="100" height="30" as="geometry" />
        </mxCell>
        <mxCell id="8aqaGeK2fXo3s5Go30Ze-99" value="Registrar a compra de acordo com os dados enviados" style="whiteSpace=wrap;html=1;aspect=fixed;" vertex="1" parent="1">
          <mxGeometry x="1710" y="117" width="120" height="120" as="geometry" />
        </mxCell>
        <mxCell id="8aqaGeK2fXo3s5Go30Ze-100" value="Cenário" style="text;html=1;align=center;verticalAlign=middle;resizable=0;points=[];autosize=1;strokeColor=none;fillColor=none;" vertex="1" parent="1">
          <mxGeometry x="1735" y="77" width="70" height="30" as="geometry" />
        </mxCell>
        <mxCell id="8aqaGeK2fXo3s5Go30Ze-101" value="Usuário deve estar logado" style="whiteSpace=wrap;html=1;aspect=fixed;" vertex="1" parent="1">
          <mxGeometry x="1875" y="117" width="120" height="120" as="geometry" />
        </mxCell>
        <mxCell id="8aqaGeK2fXo3s5Go30Ze-102" value="Pré condição" style="text;html=1;align=center;verticalAlign=middle;resizable=0;points=[];autosize=1;strokeColor=none;fillColor=none;" vertex="1" parent="1">
          <mxGeometry x="1890" y="77" width="90" height="30" as="geometry" />
        </mxCell>
        <mxCell id="8aqaGeK2fXo3s5Go30Ze-103" value="&lt;div&gt;1. Usuário acessa a página de compra da rifa&lt;br&gt;&lt;/div&gt;&lt;div&gt;2. Preenche os campos necessários&lt;/div&gt;&lt;div&gt;3. Clica no botão de criar a compra&lt;br&gt;&lt;/div&gt;" style="whiteSpace=wrap;html=1;aspect=fixed;" vertex="1" parent="1">
          <mxGeometry x="2040" y="117" width="120" height="120" as="geometry" />
        </mxCell>
        <mxCell id="8aqaGeK2fXo3s5Go30Ze-104" value="Caso de teste" style="text;html=1;align=center;verticalAlign=middle;resizable=0;points=[];autosize=1;strokeColor=none;fillColor=none;" vertex="1" parent="1">
          <mxGeometry x="2050" y="77" width="100" height="30" as="geometry" />
        </mxCell>
        <mxCell id="8aqaGeK2fXo3s5Go30Ze-105" value="O sistema deve redirecionar para a página de sucesso de criação" style="whiteSpace=wrap;html=1;aspect=fixed;" vertex="1" parent="1">
          <mxGeometry x="2200" y="117" width="120" height="120" as="geometry" />
        </mxCell>
        <mxCell id="8aqaGeK2fXo3s5Go30Ze-106" value="Resultado Esperado" style="text;html=1;align=center;verticalAlign=middle;resizable=0;points=[];autosize=1;strokeColor=none;fillColor=none;" vertex="1" parent="1">
          <mxGeometry x="2195" y="77" width="130" height="30" as="geometry" />
        </mxCell>
        <mxCell id="8aqaGeK2fXo3s5Go30Ze-107" value="2" style="whiteSpace=wrap;html=1;aspect=fixed;" vertex="1" parent="1">
          <mxGeometry x="1400" y="277" width="120" height="120" as="geometry" />
        </mxCell>
        <mxCell id="8aqaGeK2fXo3s5Go30Ze-109" value="Registrar compra com dados faltantes" style="whiteSpace=wrap;html=1;aspect=fixed;" vertex="1" parent="1">
          <mxGeometry x="1710" y="277" width="120" height="120" as="geometry" />
        </mxCell>
        <mxCell id="8aqaGeK2fXo3s5Go30Ze-110" value="Usuário deve estar logado" style="whiteSpace=wrap;html=1;aspect=fixed;" vertex="1" parent="1">
          <mxGeometry x="1875" y="277" width="120" height="120" as="geometry" />
        </mxCell>
        <mxCell id="8aqaGeK2fXo3s5Go30Ze-112" value="O sistema deve retornar uma mensagem indicando a falta de informação" style="whiteSpace=wrap;html=1;aspect=fixed;" vertex="1" parent="1">
          <mxGeometry x="2200" y="277" width="120" height="120" as="geometry" />
        </mxCell>
        <mxCell id="8aqaGeK2fXo3s5Go30Ze-113" value="3" style="whiteSpace=wrap;html=1;aspect=fixed;" vertex="1" parent="1">
          <mxGeometry x="1400" y="437" width="120" height="120" as="geometry" />
        </mxCell>
        <mxCell id="8aqaGeK2fXo3s5Go30Ze-115" value="Registrar a rifa com imagem da rifa faltando" style="whiteSpace=wrap;html=1;aspect=fixed;" vertex="1" parent="1">
          <mxGeometry x="1710" y="437" width="120" height="120" as="geometry" />
        </mxCell>
        <mxCell id="8aqaGeK2fXo3s5Go30Ze-116" value="Usuário deve estar logado" style="whiteSpace=wrap;html=1;aspect=fixed;" vertex="1" parent="1">
          <mxGeometry x="1875" y="437" width="120" height="120" as="geometry" />
        </mxCell>
        <mxCell id="8aqaGeK2fXo3s5Go30Ze-117" value="&lt;div&gt;1. Usuário acessa o formulário de cadastro da rifa&lt;/div&gt;&lt;div&gt;2. Preenche os campos necessários, mas não envia a imagem da rifa&lt;br&gt;&lt;/div&gt;&lt;div&gt;3. Clica no botão de criar a rifa&lt;br&gt;&lt;/div&gt;" style="whiteSpace=wrap;html=1;aspect=fixed;" vertex="1" parent="1">
          <mxGeometry x="2040" y="427" width="130" height="130" as="geometry" />
        </mxCell>
        <mxCell id="8aqaGeK2fXo3s5Go30Ze-156" value="&lt;font style=&quot;font-size: 26px;&quot;&gt;&lt;b&gt;Compras&lt;/b&gt;&lt;/font&gt;s" style="text;html=1;align=center;verticalAlign=middle;resizable=0;points=[];autosize=1;strokeColor=none;fillColor=none;" vertex="1" parent="1">
          <mxGeometry x="1710" width="140" height="40" as="geometry" />
        </mxCell>
        <mxCell id="8aqaGeK2fXo3s5Go30Ze-157" value="O sistema deve redirecionar para a página de sucesso" style="whiteSpace=wrap;html=1;aspect=fixed;" vertex="1" parent="1">
          <mxGeometry x="2200" y="437" width="120" height="120" as="geometry" />
        </mxCell>
        <mxCell id="8aqaGeK2fXo3s5Go30Ze-174" value="Registrar Compra" style="whiteSpace=wrap;html=1;aspect=fixed;" vertex="1" parent="1">
          <mxGeometry x="1550" y="277" width="120" height="120" as="geometry" />
        </mxCell>
        <mxCell id="8aqaGeK2fXo3s5Go30Ze-175" value="Registrar Compra" style="whiteSpace=wrap;html=1;aspect=fixed;" vertex="1" parent="1">
          <mxGeometry x="1550" y="437" width="120" height="120" as="geometry" />
        </mxCell>
        <mxCell id="8aqaGeK2fXo3s5Go30Ze-176" value="&lt;div&gt;1. Usuário acessa a página de compra da rifa&lt;br&gt;&lt;/div&gt;&lt;div&gt;2. Preenche os campos necessários&lt;/div&gt;&lt;div&gt;3. Clica no botão de criar a compra&lt;br&gt;&lt;/div&gt;" style="whiteSpace=wrap;html=1;aspect=fixed;" vertex="1" parent="1">
          <mxGeometry x="2040" y="270" width="120" height="120" as="geometry" />
        </mxCell>
      </root>
    </mxGraphModel>
  </diagram>
</mxfile>
